first trial
nRows=35
nColumns=38

# SIMM Motion File Header:
name Sujet_04_velo_100.mvnx
datacolumns 38
datarows 35
otherdata 1
range 4.0500 4.6170
endheader
time pelvis_tilt  pelvis_list  pelvis_rotation  pelvis_tx  pelvis_ty  pelvis_tz  hip_flexion_r  hip_adduction_r  hip_rotation_r  knee_angle_r  ankle_angle_r  subtalar_angle_r  mtp_angle_r  hip_flexion_l  hip_adduction_l  hip_rotation_l  knee_angle_l  ankle_angle_l  subtalar_angle_l  mtp_angle_l  lumbar_extension  lumbar_bending  lumbar_rotation  arm_flex_r  arm_add_r  arm_rot_r  elbow_flex_r  pro_sup_r  wrist_flex_r  wrist_dev_r  arm_flex_l  arm_add_l  arm_rot_l  elbow_flex_l  pro_sup_l  wrist_flex_l  wrist_dev_l
4.0500	-17.5992	4.4248	-43.2269	0.0000	1.2500	-0.0000	71.4000	-12.1376	6.1717	99.6927	7.7079	2.6467	0.0000	57.4065	-4.9288	-17.4388	51.1439	-4.0336	10.5560	-0.0000	-15.8690	1.0438	-0.8627	72.5837	-3.0911	16.6245	20.4709	73.7670	-24.5271	-10.7337	68.9220	13.8869	17.8778	11.9071	71.6199	-32.4155	-20.3099	
4.0670	-17.7505	4.2712	-43.7368	0.0000	1.2500	-0.0000	74.7150	-12.2902	6.4655	102.3100	9.5040	1.9454	-0.0000	53.9235	-5.0731	-17.9616	47.7102	-5.5646	10.5155	0.0000	-15.8355	1.0270	-0.6979	72.7389	-3.0145	16.8353	20.4715	73.9179	-24.6039	-10.7926	68.9705	13.6577	17.9812	11.9341	71.3108	-32.2963	-20.4260	
4.0830	-17.8846	4.1682	-44.2330	0.0000	1.2500	-0.0000	77.9161	-12.3690	6.7816	104.0555	11.4360	1.1882	0.0000	50.7288	-5.2476	-18.3351	45.2262	-6.6075	10.2810	0.0000	-15.7978	0.9895	-0.5375	72.8181	-2.9059	17.1868	20.4310	73.9437	-24.6914	-10.8568	69.0963	13.3855	17.8859	11.8560	71.1874	-32.0998	-20.5580	
4.1000	-18.0178	4.0446	-44.6000	0.0000	1.2500	-0.0000	80.6597	-12.2971	7.1892	104.6783	12.8586	0.4304	-0.0000	48.2134	-5.3582	-18.6782	44.0016	-6.9156	10.0774	0.0000	-15.7635	0.9932	-0.4114	72.8651	-2.7861	17.4903	20.3982	73.9734	-24.7798	-10.9003	69.2060	13.1315	17.8265	11.8383	71.0439	-31.9363	-20.6539	
4.1170	-18.1673	3.8410	-44.8022	0.0000	1.2500	-0.0000	82.9654	-12.0106	7.8158	104.0386	13.4942	-0.5198	0.0000	46.4604	-5.3760	-19.0597	44.1402	-6.1328	9.9444	0.0000	-15.7281	1.0758	-0.3271	72.8607	-2.6424	17.6813	20.3996	74.0520	-24.8673	-10.9003	69.2383	12.9082	17.8852	11.9518	70.8108	-31.8597	-20.6921	
4.1330	-18.3166	3.6177	-44.8751	0.0000	1.2500	-0.0000	84.8094	-11.5819	8.5389	102.2692	13.6098	-1.5341	-0.0000	45.3896	-5.3657	-19.3862	45.5311	-4.6137	9.8264	-0.0000	-15.6963	1.1995	-0.2770	72.8244	-2.4879	17.8243	20.4086	74.1345	-24.9559	-10.8792	69.2557	12.7033	17.9793	12.1257	70.5567	-31.8167	-20.6949	
4.1500	-18.4308	3.4841	-44.8086	0.0000	1.2500	-0.0000	85.7874	-11.1610	9.0709	99.5437	13.4061	-2.1244	0.0000	45.1495	-5.3779	-19.5224	48.1643	-3.1785	9.7922	0.0000	-15.6895	1.3120	-0.2675	72.8585	-2.3812	17.9244	20.3944	74.2153	-25.0412	-10.8787	69.3530	12.5410	18.0956	12.3132	70.2810	-31.7581	-20.6763	
4.1670	-18.5097	3.4560	-44.5800	0.0000	1.2500	-0.0000	85.7352	-10.7512	9.3624	95.7892	12.9512	-2.0465	0.0000	45.9204	-5.4199	-19.4603	52.3069	-2.0350	9.8448	-0.0000	-15.7242	1.4132	-0.3046	73.0653	-2.3506	17.9559	20.3144	74.3421	-25.1264	-10.9255	69.6136	12.4216	18.2495	12.5419	69.9271	-31.6484	-20.6273	
4.1830	-18.5534	3.5184	-44.2109	0.0000	1.2500	-0.0000	84.8225	-10.3648	9.4810	91.1430	12.2128	-1.5828	0.0000	47.5222	-5.4752	-19.2087	57.7077	-0.9727	9.9716	-0.0000	-15.7832	1.5039	-0.3821	73.3433	-2.3675	17.9446	20.2112	74.4671	-25.2083	-10.9927	69.9542	12.3435	18.4258	12.7836	69.5520	-31.5234	-20.5573	
4.2000	-18.5278	3.7342	-43.7575	0.0000	1.2500	-0.0000	83.1527	-10.1670	9.3141	86.0969	11.2495	-1.0207	-0.0000	49.5634	-5.5510	-18.6621	63.5727	-0.1874	10.2390	0.0000	-15.8375	1.5328	-0.4889	73.4899	-2.4053	17.9720	20.1815	74.4409	-25.2730	-11.0410	70.2197	12.3307	18.5667	12.9086	69.3248	-31.4404	-20.5077	
4.2170	-18.3994	4.1863	-43.2037	0.0000	1.2500	-0.0000	80.6290	-10.2351	8.7394	80.6384	10.0104	-0.3634	0.0000	52.0115	-5.6175	-17.6323	69.9039	0.0896	10.7990	-0.0000	-15.8771	1.4581	-0.6314	73.3860	-2.4425	18.0997	20.2740	74.1546	-25.3175	-11.0589	70.3352	12.4164	18.6647	12.8260	69.3090	-31.4248	-20.4991	
4.2330	-18.1957	4.7886	-42.5688	0.0000	1.2500	-0.0000	77.3477	-10.4598	7.8271	74.8004	8.5290	0.4220	0.0000	54.9133	-5.6460	-16.3349	76.6792	0.0747	11.5552	-0.0000	-15.9140	1.3213	-0.8034	73.1506	-2.4999	18.2657	20.4386	73.7177	-25.3448	-11.0581	70.3753	12.5693	18.7266	12.6269	69.4411	-31.4509	-20.5104	
4.2500	-17.9764	5.3514	-41.9593	0.0000	1.2500	-0.0000	73.7005	-10.7225	6.7617	69.0656	6.9894	1.1126	0.0000	57.9882	-5.6857	-15.2535	83.0629	0.2531	12.1672	-0.0000	-15.9515	1.1962	-0.9752	72.9383	-2.6154	18.3649	20.6251	73.3068	-25.3504	-11.0347	70.4084	12.7174	18.7159	12.4547	69.6983	-31.4987	-20.5198	
4.2670	-17.7393	5.8101	-41.4268	0.0000	1.2500	-0.0000	69.6093	-10.9794	5.5202	63.3382	5.4763	1.6534	0.0000	61.2159	-5.7778	-14.5879	88.9406	0.7426	12.5120	0.0000	-15.9952	1.1071	-1.1216	72.8091	-2.8436	18.3572	20.8334	72.9719	-25.3161	-10.9685	70.4340	12.8559	18.5854	12.3589	70.1264	-31.5647	-20.5173	
4.2830	-17.4894	6.2296	-40.9193	0.0000	1.2500	-0.0000	65.1473	-11.2152	4.1106	57.6556	3.8982	2.1036	-0.0000	64.6079	-5.9202	-14.1256	94.4316	1.4369	12.6733	-0.0000	-16.0389	1.0295	-1.2678	72.7023	-3.1303	18.2827	21.0649	72.6613	-25.2593	-10.8796	70.4524	12.9885	18.3826	12.2855	70.6790	-31.6524	-20.5130	
4.3000	-17.3008	6.6175	-40.3852	0.0000	1.2500	-0.0000	60.9352	-11.4032	2.8060	52.6766	2.1885	2.4105	-0.0000	67.9243	-6.1301	-13.7061	99.0578	2.4987	12.5817	0.0000	-16.0664	0.9641	-1.4596	72.5902	-3.3495	18.1561	21.2740	72.4006	-25.2295	-10.8242	70.5349	13.0560	18.2141	12.2256	71.1944	-31.7529	-20.5152	
4.3170	-17.2182	6.9731	-39.7107	0.0000	1.2500	-0.0000	57.0558	-11.5979	1.6732	48.4328	0.0693	2.5531	0.0000	71.1759	-6.4590	-13.2662	102.7173	4.1703	12.2186	-0.0000	-16.0567	0.9376	-1.7579	72.4384	-3.4058	17.9131	21.4120	72.2660	-25.2579	-10.8284	70.7285	13.0189	18.0757	12.1843	71.6455	-31.8717	-20.5245	
4.3330	-17.1965	7.3000	-39.0069	0.0000	1.2500	-0.0000	53.4232	-11.7690	0.6499	44.8711	-2.1752	2.5684	0.0000	74.3562	-6.8541	-12.8580	105.5223	6.2068	11.6656	0.0000	-16.0309	0.9231	-2.1020	72.2815	-3.3927	17.6186	21.5275	72.1822	-25.3145	-10.8670	70.9872	12.9182	17.9724	12.1575	72.0601	-32.0033	-20.5402	
4.3500	-17.1783	7.6128	-38.5600	0.0000	1.2500	-0.0000	50.4110	-11.8513	-0.1438	42.5350	-3.7555	2.4779	0.0000	77.1987	-7.1799	-12.4854	107.3133	8.0336	10.9661	-0.0000	-16.0369	0.8406	-2.3551	72.1958	-3.4695	17.4788	21.7193	71.9490	-25.3567	-10.9188	71.2436	12.8161	18.0242	12.1289	72.3592	-32.1217	-20.5685	
4.3670	-17.1577	7.9186	-38.5898	0.0000	1.2500	-0.0000	48.1028	-11.8471	-0.5779	41.6192	-4.2482	2.2205	0.0000	79.7188	-7.4752	-12.1223	108.0269	9.5362	9.9089	-0.0000	-16.0998	0.6227	-2.4378	72.2209	-3.7318	17.6645	22.0577	71.3748	-25.3577	-10.9852	71.5025	12.7502	18.3603	12.0981	72.4502	-32.2161	-20.6173	
4.3830	-17.1456	8.2107	-38.8764	0.0000	1.2500	-0.0000	46.4163	-11.8472	-0.7377	41.9435	-4.0630	1.8353	-0.0000	81.8961	-7.7284	-11.7613	107.7230	10.8220	8.6777	0.0000	-16.1931	0.3367	-2.4304	72.3156	-4.0897	18.0017	22.4710	70.6534	-25.3437	-11.0638	71.7573	12.6827	18.8524	12.0689	72.4251	-32.2969	-20.6782	
4.4000	-17.1094	8.4819	-39.0473	0.0000	1.2500	-0.0000	45.4787	-11.9214	-0.8183	43.4913	-3.6593	1.4725	-0.0000	83.4062	-7.7330	-11.4630	106.4180	11.6602	7.8209	-0.0000	-16.2884	0.1054	-2.4356	72.4346	-4.4217	18.1809	22.8468	70.1607	-25.3510	-11.1267	71.9252	12.5629	19.2333	12.0334	72.4816	-32.3704	-20.7321	
4.4170	-17.0293	8.7930	-38.8757	0.0000	1.2500	-0.0000	45.3995	-12.1388	-0.9786	46.4318	-3.1385	1.0515	0.0000	84.1751	-7.2913	-11.1864	103.9919	11.9678	7.4940	0.0000	-16.3853	-0.0355	-2.5132	72.5855	-4.7151	18.0289	23.1712	70.0653	-25.4020	-11.1608	71.9750	12.3580	19.3841	11.9790	72.7484	-32.4261	-20.7644	
4.4330	-16.9225	9.0824	-38.5893	0.0000	1.2500	-0.0000	46.0709	-12.4233	-1.0498	50.6022	-2.4019	0.6049	-0.0000	84.2764	-6.5996	-10.9932	100.5609	11.8465	7.4741	0.0000	-16.4855	-0.1207	-2.6026	72.7617	-4.9785	17.7218	23.4595	70.1965	-25.4745	-11.1792	71.9411	12.1004	19.4222	11.9188	73.0971	-32.4750	-20.7897	
4.4500	-16.8116	9.1593	-38.4967	0.0000	1.2500	-0.0000	47.2932	-12.5978	-0.7503	55.4693	-1.6034	0.4813	0.0000	83.6088	-6.0372	-11.1101	96.5007	11.3471	7.7424	0.0000	-16.5644	-0.1322	-2.6245	72.8998	-5.1178	17.4760	23.6457	70.4213	-25.5387	-11.1931	71.8410	11.8384	19.4339	11.8849	73.3410	-32.5570	-20.8339	
4.4670	-16.6821	8.8936	-38.7778	0.0000	1.2500	-0.0000	49.0783	-12.5108	0.1165	61.1548	-0.7155	0.9977	-0.0000	82.0461	-5.7683	-11.7169	91.8127	10.4461	8.4542	0.0000	-16.6168	-0.0444	-2.5288	72.9756	-5.0593	17.3754	23.6710	70.7265	-25.5924	-11.2102	71.6804	11.5586	19.4154	11.8769	73.4306	-32.7072	-20.9200	
4.4830	-16.5464	8.4175	-39.2509	0.0000	1.2500	-0.0000	51.4124	-12.2591	1.3145	67.5489	0.2292	1.8905	0.0000	79.7221	-5.6058	-12.6435	86.4958	9.1457	9.4647	0.0000	-16.6488	0.1166	-2.3656	73.0140	-4.8769	17.3356	23.5951	71.1258	-25.6378	-11.2226	71.4513	11.2748	19.3710	11.8955	73.4148	-32.8908	-21.0250	
4.5000	-16.4733	7.9326	-39.6819	0.0000	1.2500	-0.0000	54.0580	-12.0506	2.4819	73.7628	0.9992	2.6540	0.0000	76.9218	-5.4055	-13.5834	80.9176	7.5488	10.3359	0.0000	-16.6520	0.2905	-2.2059	73.0259	-4.6972	17.3208	23.5288	71.5267	-25.6521	-11.2197	71.1510	11.0760	19.3980	11.9734	73.2544	-33.0419	-21.1062	
4.5170	-16.4967	7.4777	-39.9458	0.0000	1.2500	-0.0000	57.0113	-11.9669	3.5600	79.6054	1.3388	3.1524	0.0000	73.6023	-5.0898	-14.5176	74.9818	5.5968	10.9575	-0.0000	-16.6115	0.4754	-2.0822	72.9825	-4.5740	17.3147	23.5177	71.8977	-25.6024	-11.1798	70.7172	11.0153	19.5659	12.1588	72.8942	-33.1485	-21.1327	
4.5330	-16.5847	7.0118	-40.1701	0.0000	1.2500	-0.0000	60.2803	-11.9303	4.6187	85.2662	1.5072	3.5117	-0.0000	69.8072	-4.7187	-15.4502	68.7620	3.3646	11.4620	-0.0000	-16.5418	0.6734	-1.9620	72.9128	-4.4539	17.3341	23.5124	72.2691	-25.5221	-11.1254	70.2129	11.0401	19.8059	12.3995	72.3903	-33.2226	-21.1364	
4.5500	-16.7119	6.6161	-40.5024	0.0000	1.2500	-0.0000	63.6488	-11.9445	5.5252	90.4044	2.0545	3.5911	-0.0000	65.9423	-4.3875	-16.1042	62.9077	1.1734	11.7756	0.0000	-16.4763	0.8301	-1.8171	72.9164	-4.3028	17.3940	23.4811	72.6416	-25.4876	-11.1114	69.8241	11.0812	20.0066	12.5783	71.8706	-33.2343	-21.1692	
4.5670	-16.8946	6.3306	-41.0213	0.0000	1.2500	-0.0000	67.1597	-12.0678	6.2374	95.0371	3.2599	3.3358	-0.0000	61.9698	-4.1471	-16.3332	57.4173	-0.9992	11.8376	-0.0000	-16.4252	0.9189	-1.6287	73.0648	-4.0794	17.5151	23.4028	73.0211	-25.5368	-11.1774	69.6576	11.1247	20.1434	12.6302	71.3543	-33.1600	-21.2667	
4.5830	-17.1158	6.1130	-41.6492	0.0000	1.2500	-0.0000	70.7723	-12.2399	6.7984	99.1156	4.8380	2.8460	-0.0000	57.9154	-3.9733	-16.3158	52.3287	-3.1326	11.7062	-0.0000	-16.3788	0.9661	-1.4151	73.2852	-3.8235	17.6769	23.3007	73.4024	-25.6312	-11.2834	69.6069	11.1841	20.2401	12.6178	70.8201	-33.0232	-21.3926	
4.6000	-17.3003	5.9222	-42.2975	0.0000	1.2500	-0.0000	74.1385	-12.3028	7.1954	102.1927	6.4879	2.2061	-0.0000	54.2800	-3.8577	-16.2734	48.3631	-4.8419	11.4780	-0.0000	-16.3408	0.9967	-1.2031	73.4620	-3.6220	17.8325	23.2110	73.7693	-25.7326	-11.3643	69.5375	11.2327	20.2576	12.6209	70.3348	-32.8652	-21.4901	
4.6170	-17.4114	5.7731	-43.0095	0.0000	1.2500	-0.0000	77.2475	-12.2203	7.3190	104.1497	8.2524	1.3768	0.0000	51.1282	-3.8048	-16.2140	45.7036	-6.0440	11.0937	0.0000	-16.3126	0.9917	-0.9877	73.5291	-3.5090	17.9557	23.1632	74.1474	-25.8421	-11.3957	69.3743	11.2627	20.1692	12.6580	69.9121	-32.6688	-21.5379	
